<?xml version="1.0" encoding="UTF-8" standalone="no"?>
<svg
   xmlns:dc="http://purl.org/dc/elements/1.1/"
   xmlns:cc="http://creativecommons.org/ns#"
   xmlns:rdf="http://www.w3.org/1999/02/22-rdf-syntax-ns#"
   xmlns:svg="http://www.w3.org/2000/svg"
   xmlns="http://www.w3.org/2000/svg"
   xmlns:sodipodi="http://sodipodi.sourceforge.net/DTD/sodipodi-0.dtd"
   xmlns:inkscape="http://www.inkscape.org/namespaces/inkscape"
   version="1.1"
   id="svg10"
   width="278.00168"
   height="249.55122"
   viewBox="0 0 278.00168 249.55122"
   sodipodi:docname="paramètres.svg"
   inkscape:version="1.0.2 (e86c870879, 2021-01-15, custom)">
  <metadata
     id="metadata16">
    <rdf:RDF>
      <cc:Work
         rdf:about="">
        <dc:format>image/svg+xml</dc:format>
        <dc:type
           rdf:resource="http://purl.org/dc/dcmitype/StillImage" />
        <dc:title></dc:title>
      </cc:Work>
    </rdf:RDF>
  </metadata>
  <defs
     id="defs14" />
  <sodipodi:namedview
     pagecolor="#ffffff"
     bordercolor="#666666"
     borderopacity="1"
     objecttolerance="10"
     gridtolerance="10"
     guidetolerance="10"
     inkscape:pageopacity="0"
     inkscape:pageshadow="2"
     inkscape:window-width="1083"
     inkscape:window-height="888"
     id="namedview12"
     showgrid="false"
     inkscape:zoom="2.1449698"
     inkscape:cx="112.9793"
     inkscape:cy="130.73913"
     inkscape:window-x="382"
     inkscape:window-y="103"
     inkscape:window-maximized="0"
     inkscape:current-layer="g18" />
  <g
     inkscape:groupmode="layer"
     inkscape:label="Image"
     id="g18">
    <g
       id="g22"
       transform="translate(2.0248004,3.5793831)">
      <path
         style="fill:#656464;stroke-width:0.81287"
         d="m 112.79327,234.08694 c -6.59028,-1.2725 -12.3515,-2.54181 -12.802707,-2.82066 -0.477878,-0.29535 -0.820373,-4.56305 -0.820373,-10.22233 v -9.7153 l -4.324365,-2.12087 -4.324365,-2.12087 -6.999798,4.97475 c -10.079765,7.16366 -10.270291,7.1322 -22.507286,-3.7169 -11.742653,-10.41082 -11.68582,-10.19906 -5.739188,-21.38456 2.235393,-4.20474 4.05891,-7.84527 4.052259,-8.09006 -0.0067,-0.24479 -1.224073,-1.87764 -2.705383,-3.62854 l -2.69329,-3.18346 -10.100364,0.18944 -10.100364,0.18945 -3.858096,-11.66719 c -2.121954,-6.41696 -3.858097,-13.12006 -3.858097,-14.8958 0,-3.20168 0.06779,-3.27189 8.128704,-8.41822 l 8.128704,-5.18962 v -3.95297 -3.95297 l -9.348009,-4.65319 c -7.303046,-3.63526 -9.34801,-5.01253 -9.34801,-6.29584 0,-0.90344 1.280271,-7.62583 2.845046,-14.938619 1.564776,-7.312786 2.845047,-13.439553 2.845047,-13.615035 0,-0.175475 4.362026,-0.319052 9.693391,-0.319052 h 9.693391 l 2.413175,-4.455452 2.413175,-4.455451 -4.790733,-6.86624 c -7.059617,-10.118086 -6.967931,-10.703612 3.54119,-22.614452 7.969768,-9.032788 8.47325,-9.445309 11.583403,-9.490731 2.446795,-0.03573 5.030838,0.951239 10.441286,3.988038 l 7.1898,4.035526 3.628507,-2.496474 3.628499,-2.496474 -0.25099,-10.226711 -0.25099,-10.226712 10.973751,-3.883354 c 6.73645,-2.383873 12.41678,-3.900054 14.71091,-3.926602 l 3.73717,-0.04325 5.41212,8.128704 5.41213,8.128704 h 3.91464 3.91465 l 4.35809,-9.024081 c 2.39695,-4.963244 4.90865,-9.2353513 5.58156,-9.4935718 1.23541,-0.4740734 27.65783,4.5303098 28.72492,5.4404748 0.31662,0.27006 0.82587,4.918278 1.13168,10.329374 l 0.55602,9.838356 4.27403,2.096183 4.27404,2.096183 7.4877,-5.27976 c 5.66378,-3.993665 8.04348,-5.219361 9.76931,-5.031806 1.56702,0.170296 5.2227,2.921123 11.6722,8.783093 8.87413,8.065737 9.39189,8.708835 9.41429,11.693424 0.0168,2.231844 -1.08134,5.226353 -3.74345,10.208445 l -3.76716,7.050161 2.75107,4.219892 c 2.67901,4.109343 2.83626,4.209512 6.00256,3.823677 1.78831,-0.217918 6.32218,-0.49221 10.07526,-0.609539 l 6.82379,-0.213326 3.94674,11.765292 c 2.17072,6.470904 3.94676,13.152365 3.94676,14.847676 0,3.01193 -0.18587,3.20262 -8.12871,8.34046 l -8.1287,5.25806 v 3.90342 3.90343 l 8.94157,4.41181 8.94158,4.4118 0.009,3.28097 c 0.005,1.80454 -1.15464,8.8593 -2.57646,15.67725 l -2.58513,12.39627 -9.81981,0.003 -9.81982,0.002 -2.35162,4.35986 -2.35163,4.35985 4.99346,7.15678 c 7.00826,10.04449 6.99284,10.14569 -3.293,21.61667 -10.28888,11.47436 -10.6495,11.57426 -21.38332,5.92383 l -7.31583,-3.85116 -4.06435,2.54002 -4.06436,2.54001 v 10.3107 10.31069 l -11.76529,3.9427 c -6.47093,2.16848 -12.90794,3.9427 -14.30449,3.9427 -2.31359,0 -3.02006,-0.72222 -7.95132,-8.1287 l -5.41213,-8.12871 h -3.88613 -3.88613 l -4.4118,8.94158 c -5.2232,10.58605 -3.50306,10.08241 -22.14322,6.48322 z m 37.85948,-69.34431 c 7.63411,-2.77104 12.53439,-5.88829 18.01786,-11.46182 8.27915,-8.41514 12.93921,-19.26681 12.93921,-30.13094 0,-22.94385 -20.88443,-43.828291 -43.82829,-43.828291 -22.94361,0 -43.826985,20.883121 -43.828798,43.828291 -0.0016,20.40549 15.847608,38.88475 37.325838,43.5197 4.8876,1.05473 13.52703,0.19545 19.37418,-1.92694 z"
         id="path26" />
      <path
         style="fill:#000000;stroke-width:0.81287"
         d="m 112.79327,234.08694 c -6.59028,-1.2725 -12.3515,-2.54181 -12.802707,-2.82066 -0.477878,-0.29535 -0.820373,-4.56305 -0.820373,-10.22233 v -9.7153 l -4.324365,-2.12087 -4.324365,-2.12087 -6.999798,4.97475 c -10.079765,7.16366 -10.270291,7.1322 -22.507286,-3.7169 -11.742653,-10.41082 -11.68582,-10.19906 -5.739188,-21.38456 2.235393,-4.20474 4.05891,-7.84527 4.052259,-8.09006 -0.0067,-0.24479 -1.224073,-1.87764 -2.705383,-3.62854 l -2.69329,-3.18346 -10.100364,0.18944 -10.100364,0.18945 -3.858096,-11.66719 c -2.121954,-6.41696 -3.858097,-13.12006 -3.858097,-14.8958 0,-3.20168 0.06779,-3.27189 8.128704,-8.41822 l 8.128704,-5.18962 v -3.95297 -3.95297 l -9.348009,-4.65319 c -7.303046,-3.63526 -9.34801,-5.01253 -9.34801,-6.29584 0,-0.90344 1.280271,-7.62583 2.845046,-14.938619 1.564776,-7.312786 2.845047,-13.439553 2.845047,-13.615035 0,-0.175475 4.362026,-0.319052 9.693391,-0.319052 h 9.693391 l 2.413175,-4.455452 2.413175,-4.455451 -4.790733,-6.86624 c -7.059617,-10.118086 -6.967931,-10.703612 3.54119,-22.614452 7.969768,-9.032788 8.47325,-9.445309 11.583403,-9.490731 2.446795,-0.03573 5.030838,0.951239 10.441286,3.988038 l 7.1898,4.035526 3.628507,-2.496474 3.628499,-2.496474 -0.25099,-10.226711 -0.25099,-10.226712 10.973751,-3.883354 c 6.73645,-2.383873 12.41678,-3.900054 14.71091,-3.926602 l 3.73717,-0.04325 5.41212,8.128704 5.41213,8.128704 h 3.91464 3.91465 l 4.35809,-9.024081 c 2.39695,-4.963244 4.90865,-9.2353513 5.58156,-9.4935718 1.23541,-0.4740734 27.65783,4.5303098 28.72492,5.4404748 0.31662,0.27006 0.82587,4.918278 1.13168,10.329374 l 0.55602,9.838356 4.27403,2.096183 4.27404,2.096183 7.4877,-5.27976 c 5.66378,-3.993665 8.04348,-5.219361 9.76931,-5.031806 1.56702,0.170296 5.2227,2.921123 11.6722,8.783093 8.87413,8.065737 9.39189,8.708835 9.41429,11.693424 0.0168,2.231844 -1.08134,5.226353 -3.74345,10.208445 l -3.76716,7.050161 2.75107,4.219892 c 2.67901,4.109343 2.83626,4.209512 6.00256,3.823677 1.78831,-0.217918 6.32218,-0.49221 10.07526,-0.609539 l 6.82379,-0.213326 3.94674,11.765292 c 2.17072,6.470904 3.94676,13.152365 3.94676,14.847676 0,3.01193 -0.18587,3.20262 -8.12871,8.34046 l -8.1287,5.25806 v 3.90342 3.90343 l 8.94157,4.41181 8.94158,4.4118 0.009,3.28097 c 0.005,1.80454 -1.15464,8.8593 -2.57646,15.67725 l -2.58513,12.39627 -9.81981,0.003 -9.81982,0.002 -2.35162,4.35986 -2.35163,4.35985 4.99346,7.15678 c 7.00826,10.04449 6.99284,10.14569 -3.293,21.61667 -10.28888,11.47436 -10.6495,11.57426 -21.38332,5.92383 l -7.31583,-3.85116 -4.06435,2.54002 -4.06436,2.54001 v 10.3107 10.31069 l -11.76529,3.9427 c -6.47093,2.16848 -12.90794,3.9427 -14.30449,3.9427 -2.31359,0 -3.02006,-0.72222 -7.95132,-8.1287 l -5.41213,-8.12871 h -3.88613 -3.88613 l -4.4118,8.94158 c -5.2232,10.58605 -3.50306,10.08241 -22.14322,6.48322 z m 17.40291,-11.65977 4.19154,-8.42803 8.01231,-0.55184 c 4.40677,-0.30351 8.37975,-0.32475 8.82884,-0.0472 0.4491,0.27755 3.01202,3.7698 5.6954,7.76057 2.68338,3.99075 5.15594,7.25591 5.49456,7.25591 0.33863,0 4.79816,-1.40022 9.91008,-3.11161 l 9.29439,-3.1116 -0.24589,-10.16651 -0.24589,-10.16652 5.39989,-3.38572 c 3.1844,-1.99658 6.38857,-3.3857 7.80961,-3.3857 1.32534,0 5.41937,1.55132 9.09785,3.44737 3.67847,1.89606 6.90656,3.55396 7.17352,3.68424 0.26697,0.13028 3.64204,-3.202 7.50016,-7.40504 l 7.01477,-7.64191 -4.85833,-6.81012 c -5.91557,-8.2921 -6.08979,-10.01218 -1.81007,-17.87103 l 3.04827,-5.59754 9.81589,-0.006 9.81589,-0.006 2.22308,-10.56543 c 1.2227,-5.81099 2.05189,-10.84063 1.84265,-11.17697 -0.20924,-0.33635 -4.07216,-2.42591 -8.58428,-4.64347 l -8.20383,-4.03143 v -8.80134 -8.80134 l 7.63767,-4.88694 7.63768,-4.886926 -3.35678,-10.140453 -3.35677,-10.140458 -10.17421,0.49415 -10.17422,0.494152 -3.4547,-5.34364 c -2.18433,-3.37867 -3.45469,-6.27622 -3.45469,-7.879751 0,-1.468252 1.59308,-5.499576 3.78349,-9.574181 l 3.7835,-7.038068 -5.20602,-4.971427 c -2.86331,-2.734285 -6.39679,-5.962334 -7.85217,-7.173444 l -2.64615,-2.202016 -6.92461,4.953118 c -4.35319,3.113808 -7.74745,4.959737 -9.14046,4.970942 -1.21873,0.0098 -4.86392,-1.361914 -8.10042,-3.048264 l -5.88455,-3.066088 -0.097,-5.283658 c -0.0533,-2.906012 -0.33164,-7.455676 -0.61842,-10.110365 l -0.52143,-4.826709 -10.3357,-2.119669 -10.3357,-2.11967 -4.23796,8.775336 -4.23795,8.775336 h -8.7754 -8.7754 l -5.018,-7.519051 c -2.7599,-4.135479 -5.09614,-7.620627 -5.19165,-7.744773 -0.0955,-0.124146 -4.65554,1.350081 -10.13341,3.276062 l -9.959751,3.501783 0.132652,10.290769 0.132653,10.290768 -4.297036,2.893796 c -6.146658,4.1394 -9.367291,3.981678 -17.932115,-0.87818 l -6.647584,-3.771977 -5.95897,6.413805 c -9.498688,10.223701 -9.183623,8.901532 -3.913428,16.422662 5.668159,8.089068 5.889628,10.624699 1.608296,18.413629 l -2.919643,5.311637 h -9.591651 -9.59165 l -1.232818,5.486875 c -2.054604,9.144368 -3.246766,15.681308 -2.915357,15.985668 0.172624,0.15853 4.063227,2.16255 8.645784,4.45337 l 8.331922,4.16511 v 8.80544 8.80543 l -7.673956,4.93663 -7.673956,4.93663 3.403349,10.28115 3.40335,10.28115 9.86662,-0.56211 9.866618,-0.5621 3.751486,4.77873 c 4.888571,6.22717 4.862244,7.94225 -0.269578,17.56142 l -4.022085,7.53907 8.051974,7.13057 8.051975,7.13056 6.887842,-4.89517 c 8.309017,-5.90521 10.063996,-6.102 17.797011,-1.99576 l 5.460276,2.89942 v 9.72558 c 0,8.51255 0.17743,9.79369 1.42253,10.27159 1.09402,0.41992 16.53907,3.66522 19.92018,4.18561 0.33798,0.052 2.50071,-3.69803 4.80606,-8.33344 z m -3.79483,-50.8785 C 109.3911,167.86806 96.640578,156.48769 90.845617,139.81371 88.347146,132.6248 88.16933,114.23727 90.53119,107.2989 c 5.275708,-15.49833 15.90105,-26.123672 31.39937,-31.399378 3.53078,-1.201893 6.86355,-1.521878 15.85097,-1.521878 8.98742,0 12.3202,0.319985 15.85098,1.521878 15.49832,5.275706 26.12366,15.901048 31.39937,31.399378 2.1812,6.40764 2.1812,25.2943 0,31.70194 -3.8063,11.18169 -11.64702,21.37266 -20.32843,26.42187 -8.23355,4.78873 -13.87266,6.27587 -24.88974,6.56388 -5.58848,0.14609 -11.62405,-0.051 -13.41236,-0.43792 z m 24.2514,-6.80604 c 7.63411,-2.77104 12.53439,-5.88829 18.01786,-11.46182 8.27915,-8.41514 12.93921,-19.26681 12.93921,-30.13094 0,-22.94385 -20.88443,-43.828291 -43.82829,-43.828291 -22.94361,0 -43.826985,20.883121 -43.828798,43.828291 -0.0016,20.40549 15.847608,38.88475 37.325838,43.5197 4.8876,1.05473 13.52703,0.19545 19.37418,-1.92694 z"
         id="path24" />
    </g>
  </g>
</svg>
